<svg width="2080" height="1675" viewBox="0 0 2080 1675" fill="none" xmlns="http://www.w3.org/2000/svg">
<path d="M926.19 712.908C867.081 816.701 766.569 790.791 734.401 777.701C697.3 762.603 709.248 682.085 670.261 651.89C566.507 572.001 413.913 668.581 467.154 894.704C478.354 942.274 593.913 1171.8 560.517 1218.37C519.015 1276.25 430.484 1257.7 378.161 1220.26C266.184 1140.14 293.204 936.562 301.775 863.251C318.044 724.104 155.689 646.391 67.2267 749.393C-112.213 958.326 223.472 1573.16 402.056 1583.85C485.869 1588.87 671.818 1447.98 705.145 1445.01C728.178 1442.96 798.777 1668.21 873.668 1658.71C957.929 1648.01 1006.93 1427.18 1010.4 1367.59C1017.67 1242.91 1084.95 987.511 1150.98 1035.95C1186.3 1061.86 1091.14 1250.62 1131.18 1301.07C1228.32 1423.44 1373.91 1065.81 1441.19 1048.82C1508.47 1031.84 1499.04 1199.16 1615.37 1169.6C1686.51 1151.52 1785.45 1119.61 1969.69 791.248C2153.94 462.884 2032.28 202.749 1909.33 74.7598C1800.97 -38.0433 1677.17 21.3495 1708.74 169.746C1736.47 300.145 1836.06 666.787 1669.12 725.827C1640.19 726.665 1579.33 713.497 1567.25 654.115C1552.16 579.887 1615.37 520.419 1547.46 482.676C1479.55 444.933 1433.65 465.692 1395.29 495.257C1356.93 524.823 1322.01 681.793 1279.25 656.631C1236.49 631.469 1198.77 557.87 1254.73 476.094C1345.88 342.91 1111.94 247.244 1035.27 398.72C984.968 498.11 992.121 597.135 926.19 712.908Z" fill="#BB44DD"/>
<path d="M440.413 598.129C471.448 539.142 450.758 435.139 363.862 415.476C276.966 395.814 190.588 492.574 244.38 591.92C271.794 645.733 409.379 657.116 440.413 598.129Z" fill="#BB44DD"/>
<path d="M1562.18 273.735C1596.96 179.444 1541.04 111.903 1449.66 118.59C1358.28 125.277 1268.27 208.2 1316.68 307.171C1365.1 406.143 1527.4 368.026 1562.18 273.735Z" fill="#BB44DD"/>
<path d="M926.19 712.908C867.081 816.701 766.569 790.791 734.401 777.701C697.3 762.603 709.248 682.085 670.261 651.89C566.507 572.001 413.913 668.581 467.154 894.704C478.354 942.274 593.913 1171.8 560.517 1218.37C519.015 1276.25 430.484 1257.7 378.161 1220.26C266.184 1140.14 293.204 936.562 301.775 863.251C318.044 724.104 155.689 646.391 67.2267 749.393C-112.213 958.326 223.472 1573.16 402.056 1583.85C485.869 1588.87 671.818 1447.98 705.145 1445.01C728.178 1442.96 798.777 1668.21 873.668 1658.71C957.929 1648.01 1006.93 1427.18 1010.4 1367.59C1017.67 1242.91 1084.95 987.511 1150.98 1035.95C1186.3 1061.86 1091.14 1250.62 1131.18 1301.07C1228.32 1423.44 1373.91 1065.81 1441.19 1048.82C1508.47 1031.84 1499.04 1199.16 1615.37 1169.6C1686.51 1151.52 1785.45 1119.61 1969.69 791.248C2153.94 462.884 2032.28 202.749 1909.33 74.7598C1800.97 -38.0433 1677.17 21.3495 1708.74 169.746C1736.47 300.145 1836.06 666.787 1669.12 725.827C1640.19 726.665 1579.33 713.497 1567.25 654.115C1552.16 579.887 1615.37 520.419 1547.46 482.676C1479.55 444.933 1433.65 465.692 1395.29 495.257C1356.93 524.823 1322.01 681.793 1279.25 656.631C1236.49 631.469 1198.77 557.87 1254.73 476.094C1345.88 342.91 1111.94 247.244 1035.27 398.72C984.968 498.11 992.121 597.135 926.19 712.908Z" stroke="#831DA0" stroke-width="31"/>
<path d="M440.413 598.129C471.448 539.142 450.758 435.139 363.862 415.476C276.966 395.814 190.588 492.574 244.38 591.92C271.794 645.733 409.379 657.116 440.413 598.129Z" stroke="#831DA0" stroke-width="31"/>
<path d="M1562.18 273.735C1596.96 179.444 1541.04 111.903 1449.66 118.59C1358.28 125.277 1268.27 208.2 1316.68 307.171C1365.1 406.143 1527.4 368.026 1562.18 273.735Z" stroke="#831DA0" stroke-width="31"/>
</svg>
