<svg width="1551" height="645" viewBox="0 0 1551 645" fill="none" xmlns="http://www.w3.org/2000/svg">
<mask id="path-1-outside-1_2044_141" maskUnits="userSpaceOnUse" x="300" y="0" width="1066" height="394" fill="black">
<rect fill="white" x="300" width="1066" height="394"/>
<path d="M359.55 363.047C350.335 363.047 343.663 361.618 339.532 358.759C335.402 356.218 332.701 352.724 331.43 348.277C330.477 343.83 330 339.065 330 333.983V59.0642C330 53.6643 330.477 48.7408 331.43 44.2939C332.701 39.8469 335.243 36.3528 339.056 33.8117C343.186 31.2706 349.859 30 359.073 30C367.97 30 374.325 31.2706 378.138 33.8117C382.268 36.3528 384.81 39.8469 385.764 44.2939C387.035 48.7408 387.67 53.6643 387.67 59.0642V311.589H533.037C537.803 311.589 542.092 312.066 545.905 313.019C549.718 313.654 552.737 315.877 554.961 319.689C557.185 323.183 558.297 328.901 558.297 336.842C558.297 344.783 557.185 350.659 554.961 354.471C552.737 357.965 549.718 360.188 545.905 361.141C542.092 362.412 537.803 363.047 533.037 363.047H359.55Z"/>
<path d="M634.319 363.047C625.74 363.047 619.385 361.618 615.254 358.759C611.124 356.218 608.582 352.883 607.629 348.753C606.675 344.306 606.199 339.383 606.199 333.983V156.739C606.199 151.657 606.675 147.051 607.629 142.922C608.9 138.475 611.442 134.98 615.254 132.439C619.385 129.898 625.899 128.628 634.796 128.628C643.692 128.628 650.047 129.898 653.86 132.439C657.991 134.98 660.533 138.475 661.486 142.922C662.439 147.369 662.916 152.292 662.916 157.692V334.459C662.916 339.859 662.439 344.783 661.486 349.23C660.533 353.359 657.991 356.694 653.86 359.235C650.047 361.776 643.533 363.047 634.319 363.047ZM634.319 100.092C625.104 100.092 618.273 98.8215 613.825 96.2803C609.694 93.4216 606.993 89.6099 605.722 84.8453C604.769 80.0806 604.292 74.8395 604.292 69.122C604.292 63.0868 604.769 57.8457 605.722 53.3987C606.993 48.9518 609.853 45.4577 614.301 42.9166C618.75 40.0578 625.581 38.6284 634.796 38.6284C644.328 38.6284 651.159 40.0578 655.29 42.9166C659.42 45.7753 662.121 49.587 663.392 54.3517C664.663 58.7987 665.299 64.0397 665.299 70.0749C665.299 75.4748 664.663 80.5571 663.392 85.3217C662.121 90.0863 659.42 93.7392 655.29 96.2803C651.159 98.8215 644.169 100.092 634.319 100.092Z"/>
<path d="M831.341 364C824.668 364 819.108 362.888 814.659 360.665C810.211 358.441 806.716 354.788 804.174 349.706L717.43 168.174C712.664 158.645 711.393 151.021 713.617 145.304C715.842 139.586 721.561 134.504 730.776 130.057C740.308 125.292 747.934 123.704 753.653 125.292C759.372 126.881 764.456 132.757 768.904 142.922L831.341 289.195L892.823 145.78C897.272 135.298 902.356 128.786 908.075 126.245C913.794 123.387 922.056 124.657 932.859 130.057C943.662 135.457 949.381 141.492 950.017 148.163C950.652 154.515 948.905 161.821 944.774 170.08L858.508 349.706C855.966 354.471 852.47 357.965 848.022 360.188C843.574 362.729 838.013 364 831.341 364Z"/>
<path d="M1028.07 363.047C1019.49 363.047 1013.13 361.618 1009 358.759C1004.87 356.218 1002.33 352.883 1001.38 348.753C1000.42 344.306 999.948 339.383 999.948 333.983V156.739C999.948 151.657 1000.42 147.051 1001.38 142.922C1002.65 138.475 1005.19 134.98 1009 132.439C1013.13 129.898 1019.65 128.628 1028.54 128.628C1037.44 128.628 1043.8 129.898 1047.61 132.439C1051.74 134.98 1054.28 138.475 1055.23 142.922C1056.19 147.369 1056.66 152.292 1056.66 157.692V334.459C1056.66 339.859 1056.19 344.783 1055.23 349.23C1054.28 353.359 1051.74 356.694 1047.61 359.235C1043.8 361.776 1037.28 363.047 1028.07 363.047ZM1028.07 100.092C1018.85 100.092 1012.02 98.8215 1007.57 96.2803C1003.44 93.4216 1000.74 89.6099 999.471 84.8453C998.518 80.0806 998.042 74.8395 998.042 69.122C998.042 63.0868 998.518 57.8457 999.471 53.3987C1000.74 48.9518 1003.6 45.4577 1008.05 42.9166C1012.5 40.0578 1019.33 38.6284 1028.54 38.6284C1038.08 38.6284 1044.91 40.0578 1049.04 42.9166C1053.17 45.7753 1055.87 49.587 1057.14 54.3517C1058.41 58.7987 1059.05 64.0397 1059.05 70.0749C1059.05 75.4748 1058.41 80.5571 1057.14 85.3217C1055.87 90.0863 1053.17 93.7392 1049.04 96.2803C1044.91 98.8215 1037.92 100.092 1028.07 100.092Z"/>
<path d="M1143.93 362.571C1135.35 362.571 1128.99 361.141 1124.86 358.282C1121.05 355.741 1118.67 352.406 1117.71 348.277C1116.76 343.83 1116.28 338.906 1116.28 333.506V155.31C1116.28 150.227 1116.76 145.621 1117.71 141.492C1118.67 137.363 1121.21 134.186 1125.34 131.963C1129.47 129.422 1135.82 128.151 1144.4 128.151C1152.03 128.151 1157.75 129.104 1161.56 131.01C1165.37 132.916 1167.91 135.298 1169.19 138.157C1170.46 141.016 1171.09 143.874 1171.09 146.733C1171.41 149.592 1171.73 151.815 1172.05 153.404L1170.14 168.65C1172.05 163.568 1175.22 158.645 1179.67 153.88C1184.12 149.116 1189.52 144.827 1195.88 141.016C1202.23 136.886 1209.06 133.71 1216.37 131.486C1224 128.945 1231.78 127.675 1239.72 127.675C1254.66 127.675 1268 130.375 1279.76 135.775C1291.52 141.174 1301.53 148.798 1309.79 158.645C1318.37 168.492 1324.88 180.244 1329.33 193.903C1333.78 207.244 1336 222.332 1336 239.167V333.983C1336 339.383 1335.36 344.306 1334.09 348.753C1333.14 352.883 1330.76 356.218 1326.94 358.759C1323.13 361.3 1316.62 362.571 1307.4 362.571C1298.51 362.571 1291.99 361.141 1287.86 358.282C1283.73 355.741 1281.19 352.406 1280.24 348.277C1279.28 343.83 1278.81 338.906 1278.81 333.506V238.69C1278.81 227.255 1276.74 217.408 1272.61 209.15C1268.8 200.891 1263.08 194.538 1255.45 190.091C1248.14 185.644 1238.77 183.421 1227.33 183.421C1216.21 183.421 1206.52 185.803 1198.26 190.568C1190 195.015 1183.64 201.368 1179.19 209.626C1174.75 217.885 1172.52 227.573 1172.52 238.69V333.983C1172.52 339.383 1172.05 344.306 1171.09 348.753C1170.14 352.883 1167.6 356.218 1163.47 358.759C1159.65 361.3 1153.14 362.571 1143.93 362.571Z"/>
</mask>
<path d="M359.55 363.047C350.335 363.047 343.663 361.618 339.532 358.759C335.402 356.218 332.701 352.724 331.43 348.277C330.477 343.83 330 339.065 330 333.983V59.0642C330 53.6643 330.477 48.7408 331.43 44.2939C332.701 39.8469 335.243 36.3528 339.056 33.8117C343.186 31.2706 349.859 30 359.073 30C367.97 30 374.325 31.2706 378.138 33.8117C382.268 36.3528 384.81 39.8469 385.764 44.2939C387.035 48.7408 387.67 53.6643 387.67 59.0642V311.589H533.037C537.803 311.589 542.092 312.066 545.905 313.019C549.718 313.654 552.737 315.877 554.961 319.689C557.185 323.183 558.297 328.901 558.297 336.842C558.297 344.783 557.185 350.659 554.961 354.471C552.737 357.965 549.718 360.188 545.905 361.141C542.092 362.412 537.803 363.047 533.037 363.047H359.55Z" stroke="#BB44DD" stroke-width="60" mask="url(#path-1-outside-1_2044_141)"/>
<path d="M634.319 363.047C625.74 363.047 619.385 361.618 615.254 358.759C611.124 356.218 608.582 352.883 607.629 348.753C606.675 344.306 606.199 339.383 606.199 333.983V156.739C606.199 151.657 606.675 147.051 607.629 142.922C608.9 138.475 611.442 134.98 615.254 132.439C619.385 129.898 625.899 128.628 634.796 128.628C643.692 128.628 650.047 129.898 653.86 132.439C657.991 134.98 660.533 138.475 661.486 142.922C662.439 147.369 662.916 152.292 662.916 157.692V334.459C662.916 339.859 662.439 344.783 661.486 349.23C660.533 353.359 657.991 356.694 653.86 359.235C650.047 361.776 643.533 363.047 634.319 363.047ZM634.319 100.092C625.104 100.092 618.273 98.8215 613.825 96.2803C609.694 93.4216 606.993 89.6099 605.722 84.8453C604.769 80.0806 604.292 74.8395 604.292 69.122C604.292 63.0868 604.769 57.8457 605.722 53.3987C606.993 48.9518 609.853 45.4577 614.301 42.9166C618.75 40.0578 625.581 38.6284 634.796 38.6284C644.328 38.6284 651.159 40.0578 655.29 42.9166C659.42 45.7753 662.121 49.587 663.392 54.3517C664.663 58.7987 665.299 64.0397 665.299 70.0749C665.299 75.4748 664.663 80.5571 663.392 85.3217C662.121 90.0863 659.42 93.7392 655.29 96.2803C651.159 98.8215 644.169 100.092 634.319 100.092Z" stroke="#BB44DD" stroke-width="60" mask="url(#path-1-outside-1_2044_141)"/>
<path d="M831.341 364C824.668 364 819.108 362.888 814.659 360.665C810.211 358.441 806.716 354.788 804.174 349.706L717.43 168.174C712.664 158.645 711.393 151.021 713.617 145.304C715.842 139.586 721.561 134.504 730.776 130.057C740.308 125.292 747.934 123.704 753.653 125.292C759.372 126.881 764.456 132.757 768.904 142.922L831.341 289.195L892.823 145.78C897.272 135.298 902.356 128.786 908.075 126.245C913.794 123.387 922.056 124.657 932.859 130.057C943.662 135.457 949.381 141.492 950.017 148.163C950.652 154.515 948.905 161.821 944.774 170.08L858.508 349.706C855.966 354.471 852.47 357.965 848.022 360.188C843.574 362.729 838.013 364 831.341 364Z" stroke="#BB44DD" stroke-width="60" mask="url(#path-1-outside-1_2044_141)"/>
<path d="M1028.07 363.047C1019.49 363.047 1013.13 361.618 1009 358.759C1004.87 356.218 1002.33 352.883 1001.38 348.753C1000.42 344.306 999.948 339.383 999.948 333.983V156.739C999.948 151.657 1000.42 147.051 1001.38 142.922C1002.65 138.475 1005.19 134.98 1009 132.439C1013.13 129.898 1019.65 128.628 1028.54 128.628C1037.44 128.628 1043.8 129.898 1047.61 132.439C1051.74 134.98 1054.28 138.475 1055.23 142.922C1056.19 147.369 1056.66 152.292 1056.66 157.692V334.459C1056.66 339.859 1056.19 344.783 1055.23 349.23C1054.28 353.359 1051.74 356.694 1047.61 359.235C1043.8 361.776 1037.28 363.047 1028.07 363.047ZM1028.07 100.092C1018.85 100.092 1012.02 98.8215 1007.57 96.2803C1003.44 93.4216 1000.74 89.6099 999.471 84.8453C998.518 80.0806 998.042 74.8395 998.042 69.122C998.042 63.0868 998.518 57.8457 999.471 53.3987C1000.74 48.9518 1003.6 45.4577 1008.05 42.9166C1012.5 40.0578 1019.33 38.6284 1028.54 38.6284C1038.08 38.6284 1044.91 40.0578 1049.04 42.9166C1053.17 45.7753 1055.87 49.587 1057.14 54.3517C1058.41 58.7987 1059.05 64.0397 1059.05 70.0749C1059.05 75.4748 1058.41 80.5571 1057.14 85.3217C1055.87 90.0863 1053.17 93.7392 1049.04 96.2803C1044.91 98.8215 1037.92 100.092 1028.07 100.092Z" stroke="#BB44DD" stroke-width="60" mask="url(#path-1-outside-1_2044_141)"/>
<path d="M1143.93 362.571C1135.35 362.571 1128.99 361.141 1124.86 358.282C1121.05 355.741 1118.67 352.406 1117.71 348.277C1116.76 343.83 1116.28 338.906 1116.28 333.506V155.31C1116.28 150.227 1116.76 145.621 1117.71 141.492C1118.67 137.363 1121.21 134.186 1125.34 131.963C1129.47 129.422 1135.82 128.151 1144.4 128.151C1152.03 128.151 1157.75 129.104 1161.56 131.01C1165.37 132.916 1167.91 135.298 1169.19 138.157C1170.46 141.016 1171.09 143.874 1171.09 146.733C1171.41 149.592 1171.73 151.815 1172.05 153.404L1170.14 168.65C1172.05 163.568 1175.22 158.645 1179.67 153.88C1184.12 149.116 1189.52 144.827 1195.88 141.016C1202.23 136.886 1209.06 133.71 1216.37 131.486C1224 128.945 1231.78 127.675 1239.72 127.675C1254.66 127.675 1268 130.375 1279.76 135.775C1291.52 141.174 1301.53 148.798 1309.79 158.645C1318.37 168.492 1324.88 180.244 1329.33 193.903C1333.78 207.244 1336 222.332 1336 239.167V333.983C1336 339.383 1335.36 344.306 1334.09 348.753C1333.14 352.883 1330.76 356.218 1326.94 358.759C1323.13 361.3 1316.62 362.571 1307.4 362.571C1298.51 362.571 1291.99 361.141 1287.86 358.282C1283.73 355.741 1281.19 352.406 1280.24 348.277C1279.28 343.83 1278.81 338.906 1278.81 333.506V238.69C1278.81 227.255 1276.74 217.408 1272.61 209.15C1268.8 200.891 1263.08 194.538 1255.45 190.091C1248.14 185.644 1238.77 183.421 1227.33 183.421C1216.21 183.421 1206.52 185.803 1198.26 190.568C1190 195.015 1183.64 201.368 1179.19 209.626C1174.75 217.885 1172.52 227.573 1172.52 238.69V333.983C1172.52 339.383 1172.05 344.306 1171.09 348.753C1170.14 352.883 1167.6 356.218 1163.47 358.759C1159.65 361.3 1153.14 362.571 1143.93 362.571Z" stroke="#BB44DD" stroke-width="60" mask="url(#path-1-outside-1_2044_141)"/>
<path d="M1457.45 644.12C1431.88 644.12 1409.86 639.346 1391.38 629.798C1372.9 620.25 1358.58 606.698 1348.42 589.142C1338.56 571.586 1333.63 550.796 1333.63 526.772C1333.63 503.364 1338.41 482.882 1347.95 465.326C1357.81 447.77 1371.21 434.064 1388.15 424.208C1405.4 414.044 1424.95 408.962 1446.82 408.962C1462.84 408.962 1477.16 411.58 1489.79 416.816C1502.72 422.052 1513.66 429.598 1522.59 439.454C1531.83 449.31 1538.76 461.322 1543.38 475.49C1548.31 489.35 1550.77 505.058 1550.77 522.614C1550.77 528.158 1548.77 532.47 1544.77 535.55C1541.07 538.322 1535.68 539.708 1528.6 539.708H1380.29V506.444H1510.12L1502.72 513.374C1502.72 499.206 1500.57 487.348 1496.26 477.8C1492.25 468.252 1486.25 461.014 1478.24 456.086C1470.54 450.85 1460.84 448.232 1449.13 448.232C1436.2 448.232 1425.11 451.312 1415.87 457.472C1406.94 463.324 1400.01 471.794 1395.08 482.882C1390.46 493.662 1388.15 506.598 1388.15 521.69V524.924C1388.15 550.18 1394 569.122 1405.7 581.75C1417.72 594.07 1435.27 600.23 1458.37 600.23C1466.38 600.23 1475.31 599.306 1485.17 597.458C1495.33 595.302 1504.88 591.76 1513.81 586.832C1520.28 583.136 1525.98 581.596 1530.91 582.212C1535.83 582.52 1539.68 584.214 1542.46 587.294C1545.54 590.374 1547.38 594.224 1548 598.844C1548.62 603.156 1547.69 607.622 1545.23 612.242C1543.07 616.862 1539.22 620.866 1533.68 624.254C1522.9 631.03 1510.42 636.112 1496.26 639.5C1482.4 642.58 1469.46 644.12 1457.45 644.12Z" fill="#BB44DD"/>
<path d="M1234.94 643.196C1227.24 643.196 1220.46 641.194 1214.61 637.19C1209.07 633.186 1204.45 627.026 1200.75 618.71L1127.29 448.232C1124.52 441.456 1123.44 435.142 1124.06 429.29C1124.98 423.438 1127.76 418.818 1132.38 415.43C1137.3 411.734 1143.93 409.886 1152.24 409.886C1159.33 409.886 1165.02 411.58 1169.34 414.968C1173.65 418.048 1177.5 424.054 1180.89 432.986L1243.26 588.68H1229.4L1293.61 432.524C1297 423.9 1300.85 418.048 1305.16 414.968C1309.78 411.58 1315.94 409.886 1323.64 409.886C1330.42 409.886 1335.81 411.734 1339.81 415.43C1343.82 418.818 1346.28 423.438 1347.21 429.29C1348.13 434.834 1347.05 440.994 1343.97 447.77L1269.13 618.71C1265.74 627.026 1261.12 633.186 1255.27 637.19C1249.72 641.194 1242.95 643.196 1234.94 643.196Z" fill="#BB44DD"/>
<path d="M1083.83 642.734C1074.59 642.734 1067.51 639.962 1062.58 634.418C1057.65 628.874 1055.19 621.174 1055.19 611.318V441.764C1055.19 431.6 1057.65 423.9 1062.58 418.664C1067.51 413.12 1074.59 410.348 1083.83 410.348C1093.07 410.348 1100.16 413.12 1105.08 418.664C1110.32 423.9 1112.94 431.6 1112.94 441.764V611.318C1112.94 621.174 1110.47 628.874 1105.55 634.418C1100.62 639.962 1093.38 642.734 1083.83 642.734Z" fill="#BB44DD"/>
<path d="M989.981 644.12C969.961 644.12 953.175 640.732 939.623 633.956C926.379 627.18 916.523 617.324 910.055 604.388C903.587 591.144 900.353 574.82 900.353 555.416V457.01H876.329C868.937 457.01 863.239 455.162 859.235 451.466C855.231 447.462 853.229 442.072 853.229 435.296C853.229 428.212 855.231 422.822 859.235 419.126C863.239 415.43 868.937 413.582 876.329 413.582H900.353V371.54C900.353 361.992 902.817 354.754 907.745 349.826C912.981 344.898 920.219 342.434 929.459 342.434C938.699 342.434 945.783 344.898 950.711 349.826C955.639 354.754 958.103 361.992 958.103 371.54V413.582H1007.07C1014.47 413.582 1020.16 415.43 1024.17 419.126C1028.17 422.822 1030.17 428.212 1030.17 435.296C1030.17 442.072 1028.17 447.462 1024.17 451.466C1020.16 455.162 1014.47 457.01 1007.07 457.01H958.103V552.182C958.103 566.966 961.337 578.054 967.805 585.446C974.273 592.838 984.745 596.534 999.221 596.534C1004.46 596.534 1009.08 596.072 1013.08 595.148C1017.08 594.224 1020.63 593.608 1023.71 593.3C1027.4 592.992 1030.48 594.224 1032.95 596.996C1035.41 599.46 1036.64 604.696 1036.64 612.704C1036.64 618.864 1035.56 624.408 1033.41 629.336C1031.56 633.956 1028.02 637.19 1022.78 639.038C1018.78 640.27 1013.54 641.348 1007.07 642.272C1000.61 643.504 994.909 644.12 989.981 644.12Z" fill="#BB44DD"/>
<path d="M736.699 644.12C720.375 644.12 705.745 641.04 692.809 634.88C680.181 628.412 670.171 619.788 662.779 609.008C655.695 598.228 652.153 586.062 652.153 572.51C652.153 555.878 656.465 542.788 665.089 533.24C673.713 523.384 687.727 516.3 707.131 511.988C726.535 507.676 752.561 505.52 785.209 505.52H808.309V538.784H785.671C766.575 538.784 751.329 539.708 739.933 541.556C728.537 543.404 720.375 546.638 715.447 551.258C710.827 555.57 708.517 561.73 708.517 569.738C708.517 579.902 712.059 588.218 719.143 594.686C726.227 601.154 736.083 604.388 748.711 604.388C758.875 604.388 767.807 602.078 775.507 597.458C783.515 592.53 789.829 585.908 794.449 577.592C799.069 569.276 801.379 559.728 801.379 548.948V495.818C801.379 480.418 797.991 469.33 791.215 462.554C784.439 455.778 773.043 452.39 757.027 452.39C748.095 452.39 738.393 453.468 727.921 455.624C717.757 457.78 706.977 461.476 695.581 466.712C689.729 469.484 684.493 470.254 679.873 469.022C675.561 467.79 672.173 465.326 669.709 461.63C667.245 457.626 666.013 453.314 666.013 448.694C666.013 444.074 667.245 439.608 669.709 435.296C672.173 430.676 676.331 427.288 682.183 425.132C696.351 419.28 709.903 415.122 722.839 412.658C736.083 410.194 748.095 408.962 758.875 408.962C781.051 408.962 799.223 412.35 813.391 419.126C827.867 425.902 838.647 436.22 845.731 450.08C852.815 463.632 856.357 481.188 856.357 502.748V613.628C856.357 623.176 854.047 630.568 849.427 635.804C844.807 640.732 838.185 643.196 829.561 643.196C820.937 643.196 814.161 640.732 809.233 635.804C804.613 630.568 802.303 623.176 802.303 613.628V591.452H805.999C803.843 602.232 799.531 611.626 793.063 619.634C786.903 627.334 779.049 633.34 769.501 637.652C759.953 641.964 749.019 644.12 736.699 644.12Z" fill="#BB44DD"/>
<path d="M551.738 644.12C526.174 644.12 504.152 639.346 485.672 629.798C467.192 620.25 452.87 606.698 442.706 589.142C432.85 571.586 427.922 550.796 427.922 526.772C427.922 503.364 432.696 482.882 442.244 465.326C452.1 447.77 465.498 434.064 482.438 424.208C499.686 414.044 519.244 408.962 541.112 408.962C557.128 408.962 571.45 411.58 584.078 416.816C597.014 422.052 607.948 429.598 616.88 439.454C626.12 449.31 633.05 461.322 637.67 475.49C642.598 489.35 645.062 505.058 645.062 522.614C645.062 528.158 643.06 532.47 639.056 535.55C635.36 538.322 629.97 539.708 622.886 539.708H474.584V506.444H604.406L597.014 513.374C597.014 499.206 594.858 487.348 590.546 477.8C586.542 468.252 580.536 461.014 572.528 456.086C564.828 450.85 555.126 448.232 543.422 448.232C530.486 448.232 519.398 451.312 510.158 457.472C501.226 463.324 494.296 471.794 489.368 482.882C484.748 493.662 482.438 506.598 482.438 521.69V524.924C482.438 550.18 488.29 569.122 499.994 581.75C512.006 594.07 529.562 600.23 552.662 600.23C560.67 600.23 569.602 599.306 579.458 597.458C589.622 595.302 599.17 591.76 608.102 586.832C614.57 583.136 620.268 581.596 625.196 582.212C630.124 582.52 633.974 584.214 636.746 587.294C639.826 590.374 641.674 594.224 642.29 598.844C642.906 603.156 641.982 607.622 639.518 612.242C637.362 616.862 633.512 620.866 627.968 624.254C617.188 631.03 604.714 636.112 590.546 639.5C576.686 642.58 563.75 644.12 551.738 644.12Z" fill="#BB44DD"/>
<path d="M321.134 643.196C311.586 643.196 304.194 640.732 298.958 635.804C294.03 630.568 291.566 623.176 291.566 613.628V438.992C291.566 429.444 294.03 422.206 298.958 417.278C303.886 412.35 310.816 409.886 319.748 409.886C328.68 409.886 335.61 412.35 340.538 417.278C345.466 422.206 347.93 429.444 347.93 438.992V468.098H343.31C347.622 449.618 356.092 435.604 368.72 426.056C381.348 416.508 398.134 410.81 419.078 408.962C425.546 408.346 430.628 410.04 434.324 414.044C438.328 417.74 440.638 423.592 441.254 431.6C441.87 439.3 440.022 445.614 435.71 450.542C431.706 455.162 425.546 457.934 417.23 458.858L407.066 459.782C388.278 461.63 374.11 467.482 364.562 477.338C355.014 486.886 350.24 500.438 350.24 517.994V613.628C350.24 623.176 347.776 630.568 342.848 635.804C337.92 640.732 330.682 643.196 321.134 643.196Z" fill="#BB44DD"/>
<path d="M163.11 644.12C129.23 644.12 100.124 637.344 75.792 623.792C51.768 609.932 33.288 590.528 20.352 565.58C7.416 540.324 0.947998 510.602 0.947998 476.414C0.947998 450.85 4.644 427.904 12.036 407.576C19.428 386.94 30.054 369.384 43.914 354.908C57.774 340.124 74.714 328.882 94.734 321.182C115.062 313.174 137.854 309.17 163.11 309.17C180.05 309.17 196.682 311.326 213.006 315.638C229.33 319.95 243.652 326.11 255.972 334.118C262.44 338.122 266.752 343.05 268.908 348.902C271.064 354.446 271.526 359.99 270.294 365.534C269.062 370.77 266.444 375.236 262.44 378.932C258.744 382.628 253.97 384.784 248.118 385.4C242.574 385.708 236.414 383.706 229.638 379.394C220.09 373.234 209.772 368.768 198.684 365.996C187.596 363.224 176.354 361.838 164.958 361.838C143.09 361.838 124.61 366.304 109.518 375.236C94.426 384.168 83.03 397.104 75.33 414.044C67.63 430.984 63.78 451.774 63.78 476.414C63.78 500.746 67.63 521.536 75.33 538.784C83.03 556.032 94.426 569.122 109.518 578.054C124.61 586.986 143.09 591.452 164.958 591.452C176.662 591.452 188.212 590.066 199.608 587.294C211.004 584.214 221.784 579.594 231.948 573.434C238.724 569.43 244.73 567.736 249.966 568.352C255.51 568.66 260.13 570.508 263.826 573.896C267.522 577.284 269.986 581.596 271.218 586.832C272.45 591.76 272.142 596.996 270.294 602.54C268.446 607.776 264.75 612.396 259.206 616.4C246.886 625.332 232.102 632.262 214.854 637.19C197.914 641.81 180.666 644.12 163.11 644.12Z" fill="#BB44DD"/>
</svg>
